<?xml version="1.0" encoding="UTF-8"?><svg id="Layer_1" xmlns="http://www.w3.org/2000/svg" viewBox="0 0 200 200"><defs><style>.cls-1{fill:#d33421;}.cls-2{fill:none;stroke:#d33421;stroke-miterlimit:10;stroke-width:3.5px;}</style></defs><circle class="cls-2" cx="56" cy="45" r="15"/><rect class="cls-2" x="41" y="67" width="30" height="95"/><path class="cls-1" d="M79.28,67.6c2.42,11.81,1.93,23.96,1.74,35.94l-.56,37.06-.32,20.89c-.02,1.14,.91,1.83,1.95,1.95,10.12,1.18,20.33,1.31,30.47,.4,1-.09,2.01-.82,1.95-1.95-.64-11.1-.93-22.21-.87-33.33,.03-5.47,.15-10.95,.35-16.42,.1-2.66,.17-5.34,.38-8,.18-2.2,.54-4.5,1.59-6.47,1.98-3.69,6.02-5.52,9.96-6.33,4.4-.91,8.54-.12,11.43,3.5s3.58,8.51,3.78,13.05c.25,5.47,.27,10.96,.39,16.43,.27,12.47,.55,24.95,.82,37.42,.02,1.09,.88,1.91,1.95,1.95,9.66,.39,19.32,.71,28.98,.94,1.03,.02,1.98-.91,1.95-1.95l-1.1-35.43-.54-17.46c-.17-5.6-.14-11.25-.83-16.82-.61-4.93-1.92-9.69-4.47-13.99-2.26-3.82-5.3-7.11-8.83-9.78-8.07-6.09-18.33-7.26-28.18-6.75-5.41,.28-10.59,1.85-15.02,5.01-4.05,2.9-7.25,6.78-9.35,11.3l3.56,.47-2.77-9.85c-.39-1.4-.67-3-1.96-3.87s-2.94-.63-4.38-.61l-20.71,.32c-2.51,.04-2.51,3.94,0,3.9l18.22-.28,2.25-.03c.68-.01,1.52,.11,2.17-.03,.11-.02,.46,.09,.25-.06-.23-.16,.1,.61,.14,.76,.2,.7,.4,1.41,.59,2.11l2.44,8.68c.42,1.5,2.83,2.04,3.56,.47,3.53-7.59,10.52-13.3,18.98-14.23,2.47-.27,4.96-.24,7.43-.16,2.6,.08,5.22,.19,7.79,.62,4.21,.71,8.13,2.25,11.67,4.65,7.16,4.85,11.47,12.46,12.66,20.95,.74,5.27,.68,10.67,.85,15.98l.52,16.72,1.16,37.42,1.95-1.95c-9.66-.23-19.32-.54-28.98-.94l1.95,1.95-.78-35.67c-.13-5.83-.18-11.66-.4-17.48-.19-5.14-.84-10.54-3.77-14.91-2.72-4.06-6.86-6.6-11.81-6.6-4.66,0-9.65,1.52-13.32,4.44-4.08,3.25-5.36,8.07-5.73,13.07-.42,5.74-.51,11.52-.62,17.28-.25,13.35,.02,26.71,.78,40.04l1.95-1.95c-10.15,.91-20.35,.78-30.47-.4l1.95,1.95,.57-37.31c.19-12.39,.64-24.81,.43-37.21-.12-6.85-.63-13.69-2-20.41-.5-2.46-4.26-1.42-3.76,1.04h0Z"/></svg>