<?xml version="1.0" encoding="UTF-8"?><svg id="Layer_1" xmlns="http://www.w3.org/2000/svg" viewBox="0 0 200 200"><defs><style>.cls-1{fill:#d23421;}.cls-2{fill:none;stroke:#d23421;stroke-miterlimit:10;stroke-width:5px;}</style></defs><rect class="cls-2" x="12.5" y="40.5" width="174.5" height="120" rx="5.82" ry="5.82"/><path class="cls-1" d="M179.31,40.38c-9.88,12.36-20.52,24.08-31.48,35.48-5.44,5.66-10.95,11.24-16.46,16.82s-10.74,11.28-16.49,16.49c-4.95,4.49-11.44,8.9-18.48,8-3.55-.45-6.72-2.44-9.54-4.52s-5.26-4.27-7.73-6.56c-10.33-9.56-19.07-20.65-27.82-31.63s-17.47-21.91-27.84-31.32c-1.3-1.18-2.62-2.33-3.97-3.45-1.24-1.04-3.02-1.22-4.24,0-1.07,1.07-1.25,3.2,0,4.24,11,9.17,20.19,20.24,29.11,31.38,9,11.25,17.81,22.74,28.17,32.79,2.52,2.44,5.12,4.79,7.83,7.02,3,2.46,6.11,4.84,9.69,6.38,7.62,3.27,15.89,1.42,22.64-3.03s11.98-10.5,17.53-16.11,11.33-11.43,16.94-17.19c11.25-11.54,22.26-23.33,32.51-35.77,1.3-1.58,2.59-3.17,3.87-4.77,1.01-1.26,1.24-3.01,0-4.24-1.05-1.05-3.23-1.27-4.24,0h0Z"/><path class="cls-1" d="M65.92,96.68c-8.4,5.55-14.48,13.57-20.91,21.15-6.72,7.91-14.24,15.06-21.43,22.54-4.11,4.27-8.09,8.67-11.72,13.36-.99,1.28-1.25,3,0,4.24,1.03,1.03,3.24,1.29,4.24,0,6.35-8.18,13.75-15.44,21-22.81,3.63-3.69,7.22-7.41,10.62-11.31,3.22-3.69,6.26-7.54,9.5-11.22,3.51-3.99,7.28-7.82,11.73-10.77,1.35-.89,1.93-2.65,1.08-4.1-.78-1.34-2.75-1.97-4.1-1.08h0Z"/><path class="cls-1" d="M129.93,98.52c14.4,14.93,28.47,30.16,42.36,45.57,3.94,4.38,7.89,8.75,11.83,13.13,1.09,1.2,3.14,1.1,4.24,0,1.2-1.2,1.09-3.04,0-4.24-13.91-15.43-27.8-30.88-42.06-45.99-4.02-4.26-8.07-8.49-12.13-12.71-2.69-2.78-6.93,1.46-4.24,4.24h0Z"/></svg>