<?xml version="1.0" encoding="UTF-8"?><svg id="Layer_1" xmlns="http://www.w3.org/2000/svg" viewBox="0 0 200 200"><defs><style>.cls-1{fill:#d23421;}</style></defs><path class="cls-1" d="M31.33,25.24c3.59-2.09,7.96-2.48,12.05-2.94,2.18-.25,4.49-.86,6.69-.8,1.81,.05,2.24,1.56,2.98,3.21,4.43,9.97,8.61,20.06,12.64,30.2,.87,2.2,2.01,4.53,2.21,6.92,.05,.53,.02,1.04-.01,1.57-.03,.49,.09-.42,0,.06-.04,.19-.07,.37-.11,.56-.09,.37-.2,.73-.31,1.09-.02,.07-.23,.62-.1,.3s-.17,.36-.2,.42c-1.52,3.13-3.55,5.01-5.85,7.75s-4.46,5.56-5.2,9.01c-1.04,4.89,1.06,9.22,3.58,13.29,9.44,15.28,22.49,28.28,37.72,37.79,3.75,2.34,7.64,4.47,11.65,6.36,4.4,2.08,9.34,4.78,14.35,3.87s8.49-4.74,11.34-8.41,5.27-7.89,8.23-11.6c1.11-1.39,2.29-3.27,4.24-3,2.41,.33,4.91,1.55,7.18,2.4,4.72,1.77,9.34,3.76,13.86,5.97s9.11,4.61,13.39,7.34c1.66,1.06,2.35,2.24,2.64,4.2,.3,2.09,.29,4.27,.13,6.37-.61,7.76-4.46,15.44-10.37,20.74-6.53,5.85-15.58,8.27-24.23,8.46-10.2,.22-20.12-2.56-29.69-5.83-9.76-3.33-19.68-6.69-28.86-11.4-16.09-8.26-29.66-20.53-41.26-34.28-5.85-6.93-11.2-14.27-16.2-21.83-5.29-8.01-10.22-16.41-13.47-25.48-2.93-8.18-4.51-16.81-3.68-25.5,.68-7.12,3.36-14.74,8-20.34,2.5-3.02,5.36-5.46,8.67-7.47s.28-7.19-3.03-5.18c-7.58,4.6-13.2,11.42-16.52,19.61-3.1,7.64-3.93,16.24-2.99,24.4,2.31,20.12,13.67,37.88,25.42,53.85,11.26,15.32,24.28,29.51,40.06,40.27,8.4,5.73,17.48,10.05,26.98,13.64,10.27,3.88,20.71,7.9,31.5,10.06,9.85,1.97,20.3,2.27,29.93-.95,8.97-3,16.58-8.99,21.15-17.33,2.17-3.96,3.66-8.3,4.29-12.77,.32-2.25,.48-4.51,.37-6.78-.12-2.55-.39-5.22-1.6-7.5s-3.61-3.8-5.84-5.12-4.52-2.61-6.82-3.83c-4.77-2.53-9.67-4.81-14.65-6.89-2.48-1.03-4.98-2-7.51-2.91s-5.15-2.09-7.82-1.93c-2.86,.17-5.04,1.85-6.82,3.97-1.67,1.98-3.17,4.1-4.63,6.24-2.62,3.86-5.14,8.09-8.82,11.05-1.55,1.25-3.45,2.22-5.47,1.96-2.16-.27-4.29-1.37-6.26-2.25-16.65-7.42-31.31-18.9-42.58-33.21-2.75-3.49-5.27-7.18-7.54-10.99-1.11-1.86-2.31-3.91-2.34-6.14,0-.18,.04-1.09,.02-.88-.04,.36,.04-.21,.05-.29,.05-.23,.1-.45,.16-.68,.1-.36,.21-.71,.35-1.06,.03-.09,.24-.52,.02-.06,.12-.26,.24-.51,.38-.76,.36-.68,.78-1.33,1.22-1.96,.23-.32,.46-.64,.7-.95-.27,.34,.05-.05,.09-.1,.19-.23,.38-.47,.58-.7,1.11-1.33,2.28-2.62,3.38-3.95,2.5-3.03,4.65-6.28,5.11-10.27,.29-2.52-.31-5.07-1.17-7.43-.97-2.66-2.07-5.27-3.13-7.89-2.16-5.34-4.37-10.67-6.62-15.97-1.12-2.65-2.26-5.29-3.41-7.92-.99-2.27-1.83-4.77-3.53-6.64-1.86-2.05-4.53-2.68-7.21-2.39-2.3,.26-4.49,.6-6.81,.87-4.7,.54-9.5,1.17-13.66,3.6-3.34,1.94-.32,7.13,3.03,5.18h0Z"/></svg>